#tb 0: 1/25
0,          0,          0,        1,   196608, 0x1890aa30
0,          1,          1,        1,   196608, 0xa490acf9
0,          2,          2,        1,   196608, 0x404a775d
